<svg width="20" height="20" viewBox="0 0 20 20" fill="none" xmlns="http://www.w3.org/2000/svg">
<path d="M0.00890659 14.333C-0.0180465 14.4861 0.0168363 14.6436 0.105977 14.7709C0.195078 14.8982 0.331172 14.9848 0.484219 15.0118L3.08488 15.4704L1.44664 6.17926L0.00890659 14.333Z" fill="#434242"/>
<path d="M3.13277 0.00945094C2.97938 -0.0184006 2.82109 0.0159744 2.69309 0.105037C2.56512 0.194138 2.47789 0.330584 2.45082 0.484178L1.82941 4.0084L13.6526 1.92363L3.13277 0.00945094Z" fill="#434242"/>
<path d="M19.9911 16.8704L17.5492 3.02151C17.493 2.70284 17.1892 2.49019 16.8704 2.54624L3.02157 4.98816C2.7029 5.04433 2.49008 5.34823 2.54625 5.66691L4.98817 19.5158C5.01516 19.6688 5.10184 19.8049 5.22915 19.894C5.32833 19.9635 5.44579 20 5.56524 20C5.59911 20 5.63317 19.9971 5.66696 19.9911L19.5158 17.5492C19.6689 17.5222 19.8049 17.4355 19.8941 17.3082C19.9832 17.1809 20.0181 17.0234 19.9911 16.8704ZM5.66836 9.87624C5.61219 9.55757 5.82501 9.25366 6.14368 9.19749L15.3763 7.56952C15.6952 7.51335 15.9989 7.72612 16.0551 8.0448C16.1113 8.36347 15.8984 8.66737 15.5798 8.72355L6.34715 10.3516C6.31274 10.3576 6.27848 10.3605 6.24473 10.3605C5.96571 10.3605 5.71848 10.1605 5.66836 9.87624ZM13.3162 13.8825L7.16114 14.9678C7.12672 14.9739 7.09247 14.9768 7.05872 14.9768C6.77969 14.9768 6.53247 14.7768 6.48235 14.4925C6.42618 14.1739 6.63899 13.87 6.95766 13.8138L13.1127 12.7285C13.4316 12.6723 13.7353 12.8851 13.7915 13.2037C13.8477 13.5224 13.6349 13.8263 13.3162 13.8825ZM15.9867 11.0317L6.75411 12.6597C6.71969 12.6657 6.68544 12.6687 6.65169 12.6687C6.37266 12.6687 6.12543 12.4687 6.07532 12.1844C6.01915 11.8657 6.23196 11.5618 6.55063 11.5056L15.7832 9.87765C16.1022 9.82148 16.4058 10.0342 16.462 10.3529C16.5182 10.6716 16.3054 10.9755 15.9867 11.0317Z" fill="#434242"/>
</svg>
